<svg width="40" height="40" viewBox="0 0 40 40" fill="none" xmlns="http://www.w3.org/2000/svg">
<path d="M18.3333 17.0837C19.4839 17.0837 20.4167 16.1509 20.4167 15.0003C20.4167 13.8497 19.4839 12.917 18.3333 12.917C17.1827 12.917 16.25 13.8497 16.25 15.0003C16.25 16.1509 17.1827 17.0837 18.3333 17.0837Z" fill="#FBFBFB"/>
<path d="M4.08333 27.4833L8.73333 22.8333C10.3333 21.2333 12.9167 21.05 14.7167 22.4L18.5833 25.3L21.8833 20.5833C22.6167 19.5333 23.7667 18.8333 25.0333 18.6667C26.3 18.5 27.6 18.8667 28.5667 19.6833L35.7833 25.7L36.2333 26.1V11.6667C36.2333 7.3 32.6833 3.75 28.3167 3.75H11.6667C7.3 3.75 3.75 7.3 3.75 11.6667V27.85L4.08333 27.4833ZM18.3333 10.4167C20.8667 10.4167 22.9167 12.4667 22.9167 15C22.9167 17.5333 20.8667 19.5833 18.3333 19.5833C15.8 19.5833 13.75 17.5333 13.75 15C13.75 12.4667 15.8 10.4167 18.3333 10.4167Z" fill="#FBFBFB"/>
<path d="M12.3001 34.3001L17.1667 27.3501L13.2334 24.4001C12.4167 23.7834 11.2334 23.8668 10.5167 24.6001L5.90006 29.2168L4.26672 31.0001C5.30006 33.8668 7.91672 35.9334 11.0667 36.2001L12.3167 34.3168L12.3001 34.3001Z" fill="#FBFBFB"/>
<path d="M34.1667 27.6001L26.9834 21.6168C26.5334 21.2334 25.9501 21.0834 25.3834 21.1501C24.8001 21.2334 24.2834 21.5334 23.9501 22.0168L14.3667 35.7168L14.0167 36.2501H28.3501C32.3501 36.2501 35.6501 33.2501 36.1667 29.3834L34.1834 27.6001H34.1667Z" fill="#FBFBFB"/>
</svg>
