<svg width="40" height="40" viewBox="0 0 40 40" fill="none" xmlns="http://www.w3.org/2000/svg">
<g clip-path="url(#clip0_135_1738)">
<path d="M20 34.5837C19.08 34.5837 18.3334 33.837 18.3334 32.917V25.8337C18.3334 24.9137 19.08 24.167 20 24.167C20.92 24.167 21.6667 24.9137 21.6667 25.8337V32.917C21.6667 33.837 20.92 34.5837 20 34.5837Z" fill="#FBFBFB"/>
<path d="M22.0833 38.3337H17.9166C17.2266 38.3337 16.6666 37.7737 16.6666 37.0837V32.917C16.6666 32.227 17.2266 31.667 17.9166 31.667H22.0833C22.7733 31.667 23.3333 32.227 23.3333 32.917V37.0837C23.3333 37.7737 22.7733 38.3337 22.0833 38.3337Z" fill="#FBFBFB"/>
<path d="M17.9167 36.6663H6.66667C5.74667 36.6663 5 35.9197 5 34.9997C5 34.0797 5.74667 33.333 6.66667 33.333H17.9167C18.8367 33.333 19.5833 34.0797 19.5833 34.9997C19.5833 35.9197 18.8367 36.6663 17.9167 36.6663Z" fill="#FBFBFB"/>
<path d="M33.3333 36.6663H22.0833C21.1633 36.6663 20.4166 35.9197 20.4166 34.9997C20.4166 34.0797 21.1633 33.333 22.0833 33.333H33.3333C34.2533 33.333 35 34.0797 35 34.9997C35 35.9197 34.2533 36.6663 33.3333 36.6663Z" fill="#FBFBFB"/>
<path d="M34.1667 1.66699H5.83333C2.61667 1.66699 0 4.28366 0 7.50033C0 10.717 2.61667 13.3337 5.83333 13.3337H34.1667C37.3833 13.3337 40 10.717 40 7.50033C40 4.28366 37.3833 1.66699 34.1667 1.66699ZM5.83333 10.0003C4.45333 10.0003 3.33333 8.88033 3.33333 7.50033C3.33333 6.12033 4.45333 5.00033 5.83333 5.00033C7.21333 5.00033 8.33333 6.12033 8.33333 7.50033C8.33333 8.88033 7.21333 10.0003 5.83333 10.0003ZM14.1667 10.0003C12.7867 10.0003 11.6667 8.88033 11.6667 7.50033C11.6667 6.12033 12.7867 5.00033 14.1667 5.00033C15.5467 5.00033 16.6667 6.12033 16.6667 7.50033C16.6667 8.88033 15.5467 10.0003 14.1667 10.0003Z" fill="#FBFBFB"/>
<path d="M34.1667 16.667H5.83333C2.61667 16.667 0 19.2837 0 22.5003C0 25.717 2.61667 28.3337 5.83333 28.3337H34.1667C37.3833 28.3337 40 25.717 40 22.5003C40 19.2837 37.3833 16.667 34.1667 16.667ZM5.83333 25.0003C4.45333 25.0003 3.33333 23.8803 3.33333 22.5003C3.33333 21.1203 4.45333 20.0003 5.83333 20.0003C7.21333 20.0003 8.33333 21.1203 8.33333 22.5003C8.33333 23.8803 7.21333 25.0003 5.83333 25.0003ZM14.1667 25.0003C12.7867 25.0003 11.6667 23.8803 11.6667 22.5003C11.6667 21.1203 12.7867 20.0003 14.1667 20.0003C15.5467 20.0003 16.6667 21.1203 16.6667 22.5003C16.6667 23.8803 15.5467 25.0003 14.1667 25.0003Z" fill="#FBFBFB"/>
</g>
<defs>
<clipPath id="clip0_135_1738">
<rect width="40" height="40" fill="white"/>
</clipPath>
</defs>
</svg>
