<svg width="40" height="40" viewBox="0 0 40 40" fill="none" xmlns="http://www.w3.org/2000/svg">
<path d="M2.82569 1.3503L11.137 5.37387L5.3889 11.1222L1.36556 2.81066C1.14769 2.3754 1.24103 1.87844 1.56714 1.55233C1.89347 1.22577 2.39066 1.13266 2.82569 1.3503Z" fill="#FBFBFB"/>
<path d="M12.287 18.4857L6.70972 12.9085L12.9238 6.69434L18.3766 12.1473L16.8078 13.6852C16.7768 13.7162 16.1863 14.3067 15.2541 15.3008C14.462 16.1243 13.4208 17.2272 12.287 18.4857Z" fill="#FBFBFB"/>
<path d="M32.9178 12.3963L27.4336 6.91208C28.9563 3.55654 30.9602 2.98161 34.2694 2.06498C35.1393 1.81662 36.1788 1.6577 37.2973 1.28458C38.0896 1.02039 38.9594 1.89092 38.6955 2.68303C38.3382 3.78587 38.0135 4.62842 37.7649 5.49827C36.7393 8.9476 36.18 10.9047 32.9178 12.3963Z" fill="#FBFBFB"/>
<path d="M26.1132 19.8847C28.4125 17.4612 29.8728 15.5348 31.1156 13.7016L26.1132 8.69922C24.28 9.94218 22.3538 11.4023 19.9303 13.7016C19.4487 14.1834 18.9203 14.6803 18.361 15.2397L24.5751 21.4538C25.1347 20.8947 25.6316 20.3663 26.1132 19.8847ZM16.8385 16.8243C16.0464 17.6476 15.0054 18.7507 13.8402 20.04C8.34069 26.0367 -0.463476 36.4361 1.54063 38.4402C3.54451 40.4443 13.7781 31.4741 19.7748 25.9748C21.0643 24.8093 22.1672 23.7687 22.9907 22.9763L16.8385 16.8243Z" fill="#FBFBFB"/>
<path d="M30.7896 24.5603L24.5754 30.7744L21.3284 27.5276C22.6025 26.3777 23.69 25.3524 24.4977 24.5756C25.5074 23.628 26.0977 23.0378 26.1289 23.0066L27.667 21.4375L30.7896 24.5603Z" fill="#FBFBFB"/>
<path d="M26.1287 32.3284L32.3428 26.1143L33.8963 27.6677L27.6821 33.8819L26.1287 32.3284Z" fill="#FBFBFB"/>
<path d="M37.7804 36.2125L36.2269 37.7662C34.9377 39.0555 32.8558 39.0555 31.5663 37.7662L29.2361 35.4358L35.4502 29.2217L37.7804 31.5521C39.0699 32.8412 39.0699 34.9233 37.7804 36.2125Z" fill="#FBFBFB"/>
</svg>
