<svg width="105" height="127" viewBox="0 0 105 127" fill="none" xmlns="http://www.w3.org/2000/svg">
<g clip-path="url(#clip0_130_1083)" filter="url(#filter0_dddd_130_1083)">
<path d="M52.5315 74.727V62.3817C65.6203 62.3817 75.7165 49.477 70.6703 35.8213C69.752 33.2867 68.288 30.9848 66.3818 29.0786C64.4756 27.1724 62.1737 25.7084 59.6391 24.7901C56.6973 23.684 53.5318 23.3052 50.4121 23.686C47.2924 24.0668 44.311 25.196 41.7217 26.9774C39.1325 28.7587 37.0121 31.1395 35.5412 33.9169C34.0703 36.6943 33.2925 39.7861 33.2739 42.9289H20.9324C20.9324 22.3534 40.9409 6.08069 62.8155 12.8165C67.5164 14.2931 71.7907 16.884 75.2745 20.3684C78.7583 23.8529 81.3484 28.1277 82.8241 32.8288C89.5562 54.7147 73.2873 74.727 52.5315 74.727Z" fill="#0080FF"/>
<path d="M52.7198 62.3817H40.3782V50.2241H52.7198M40.3782 71.9223H31.0291V62.3817H40.3782V71.9223ZM31.0291 62.3817H23.1857V54.527H31.0291" fill="#0080FF"/>
</g>
<defs>
<filter id="filter0_dddd_130_1083" x="0.5" y="0" width="104" height="127" filterUnits="userSpaceOnUse" color-interpolation-filters="sRGB">
<feFlood flood-opacity="0" result="BackgroundImageFix"/>
<feColorMatrix in="SourceAlpha" type="matrix" values="0 0 0 0 0 0 0 0 0 0 0 0 0 0 0 0 0 0 127 0" result="hardAlpha"/>
<feOffset dy="2"/>
<feGaussianBlur stdDeviation="2.5"/>
<feColorMatrix type="matrix" values="0 0 0 0 0.109804 0 0 0 0 0.0862745 0 0 0 0 0.388235 0 0 0 0.1 0"/>
<feBlend mode="normal" in2="BackgroundImageFix" result="effect1_dropShadow_130_1083"/>
<feColorMatrix in="SourceAlpha" type="matrix" values="0 0 0 0 0 0 0 0 0 0 0 0 0 0 0 0 0 0 127 0" result="hardAlpha"/>
<feOffset dy="9"/>
<feGaussianBlur stdDeviation="10"/>
<feColorMatrix type="matrix" values="0 0 0 0 0.109804 0 0 0 0 0.0862745 0 0 0 0 0.388235 0 0 0 0.12 0"/>
<feBlend mode="normal" in2="effect1_dropShadow_130_1083" result="effect2_dropShadow_130_1083"/>
<feColorMatrix in="SourceAlpha" type="matrix" values="0 0 0 0 0 0 0 0 0 0 0 0 0 0 0 0 0 0 127 0" result="hardAlpha"/>
<feOffset dy="16"/>
<feGaussianBlur stdDeviation="10"/>
<feColorMatrix type="matrix" values="0 0 0 0 0.109804 0 0 0 0 0.0862745 0 0 0 0 0.388235 0 0 0 0.05 0"/>
<feBlend mode="normal" in2="effect2_dropShadow_130_1083" result="effect3_dropShadow_130_1083"/>
<feColorMatrix in="SourceAlpha" type="matrix" values="0 0 0 0 0 0 0 0 0 0 0 0 0 0 0 0 0 0 127 0" result="hardAlpha"/>
<feOffset dy="37"/>
<feGaussianBlur stdDeviation="7.5"/>
<feColorMatrix type="matrix" values="0 0 0 0 0.109804 0 0 0 0 0.0862745 0 0 0 0 0.388235 0 0 0 0.01 0"/>
<feBlend mode="normal" in2="effect3_dropShadow_130_1083" result="effect4_dropShadow_130_1083"/>
<feBlend mode="normal" in="SourceGraphic" in2="effect4_dropShadow_130_1083" result="shape"/>
</filter>
<clipPath id="clip0_130_1083">
<rect width="64" height="64" fill="white" transform="translate(20.5 11)"/>
</clipPath>
</defs>
</svg>
