<svg width="32" height="32" viewBox="0 0 32 32" fill="none" xmlns="http://www.w3.org/2000/svg">
<g clip-path="url(#clip0_116_692)">
<circle cx="15.9998" cy="14" r="10" fill="#FBFBFB"/>
<path d="M16.0143 0H15.9856C8.66935 0 2.7356 5.93125 2.7356 13.25C2.7356 21.4306 11.2881 30.0756 15.4518 31.8875C15.6263 31.9632 15.8145 32.0023 16.0047 32.0023C16.1948 32.0023 16.383 31.9632 16.5575 31.8875C20.72 30.075 29.2593 21.43 29.2593 13.25C29.2618 5.93125 23.3306 0 16.0143 0ZM22.2225 12.3006C21.625 13.0456 21 13.8169 20.375 14.6025C20.2503 14.7578 20.182 14.9508 20.1812 15.15C20.1812 16.1262 20.1604 17.1019 20.1187 18.0769C20.0893 18.6731 19.485 19.1488 18.9531 18.9769C18.0781 18.6963 17.1887 18.3844 16.2818 18.0531C16.1002 17.9869 15.901 17.9869 15.7193 18.0531C14.8125 18.3844 13.9206 18.6956 13.0481 18.9769C12.5162 19.1488 11.9118 18.6731 11.8825 18.0769C11.8408 17.1019 11.82 16.1262 11.82 15.15C11.8192 14.9508 11.7509 14.7578 11.6262 14.6025C11.0012 13.8169 10.38 13.0456 9.7806 12.3006C9.41122 11.8456 9.66685 11.1756 10.26 10.985C11.225 10.6825 12.1868 10.3744 13.1431 10.0712C13.336 10.0094 13.5031 9.8857 13.6187 9.71937C14.1962 8.8875 14.7675 8.05 15.3168 7.21938C15.3887 7.10143 15.4897 7.00395 15.6101 6.93631C15.7305 6.86867 15.8662 6.83315 16.0043 6.83315C16.1424 6.83315 16.2782 6.86867 16.3986 6.93631C16.519 7.00395 16.62 7.10143 16.6918 7.21938C17.2412 8.05125 17.8125 8.88875 18.39 9.71937C18.5056 9.8857 18.6727 10.0094 18.8656 10.0712C19.8218 10.3744 20.7837 10.6825 21.7487 10.985C22.3362 11.1737 22.5918 11.8456 22.2225 12.3006Z" fill="#5671FF"/>
</g>
<defs>
<clipPath id="clip0_116_692">
<rect width="32" height="32" fill="white"/>
</clipPath>
</defs>
</svg>
