<svg width="123" height="145" viewBox="0 0 123 145" fill="none" xmlns="http://www.w3.org/2000/svg">
<rect x="0.5" width="122" height="122" rx="61" fill="#FBFBFB"/>
<g clip-path="url(#clip0_130_1016)" filter="url(#filter0_dddd_130_1016)">
<path d="M61.5315 92.727V80.3817C74.6203 80.3817 84.7165 67.477 79.6703 53.8213C78.752 51.2867 77.288 48.9848 75.3818 47.0786C73.4756 45.1724 71.1737 43.7084 68.6391 42.7901C65.6973 41.684 62.5318 41.3052 59.4121 41.686C56.2924 42.0668 53.311 43.196 50.7217 44.9774C48.1325 46.7587 46.0121 49.1395 44.5412 51.9169C43.0703 54.6943 42.2925 57.7861 42.2739 60.9289H29.9324C29.9324 40.3534 49.9409 24.0807 71.8155 30.8165C76.5164 32.2931 80.7907 34.884 84.2745 38.3684C87.7583 41.8529 90.3484 46.1277 91.8241 50.8288C98.5562 72.7147 82.2873 92.727 61.5315 92.727Z" fill="#0080FF"/>
<path d="M61.7198 80.3817H49.3782V68.2241H61.7198M49.3782 89.9223H40.0291V80.3817H49.3782V89.9223ZM40.0291 80.3817H32.1857V72.527H40.0291" fill="#0080FF"/>
</g>
<defs>
<filter id="filter0_dddd_130_1016" x="9.5" y="18" width="104" height="127" filterUnits="userSpaceOnUse" color-interpolation-filters="sRGB">
<feFlood flood-opacity="0" result="BackgroundImageFix"/>
<feColorMatrix in="SourceAlpha" type="matrix" values="0 0 0 0 0 0 0 0 0 0 0 0 0 0 0 0 0 0 127 0" result="hardAlpha"/>
<feOffset dy="2"/>
<feGaussianBlur stdDeviation="2.5"/>
<feColorMatrix type="matrix" values="0 0 0 0 0.109804 0 0 0 0 0.0862745 0 0 0 0 0.388235 0 0 0 0.1 0"/>
<feBlend mode="normal" in2="BackgroundImageFix" result="effect1_dropShadow_130_1016"/>
<feColorMatrix in="SourceAlpha" type="matrix" values="0 0 0 0 0 0 0 0 0 0 0 0 0 0 0 0 0 0 127 0" result="hardAlpha"/>
<feOffset dy="9"/>
<feGaussianBlur stdDeviation="10"/>
<feColorMatrix type="matrix" values="0 0 0 0 0.109804 0 0 0 0 0.0862745 0 0 0 0 0.388235 0 0 0 0.12 0"/>
<feBlend mode="normal" in2="effect1_dropShadow_130_1016" result="effect2_dropShadow_130_1016"/>
<feColorMatrix in="SourceAlpha" type="matrix" values="0 0 0 0 0 0 0 0 0 0 0 0 0 0 0 0 0 0 127 0" result="hardAlpha"/>
<feOffset dy="16"/>
<feGaussianBlur stdDeviation="10"/>
<feColorMatrix type="matrix" values="0 0 0 0 0.109804 0 0 0 0 0.0862745 0 0 0 0 0.388235 0 0 0 0.05 0"/>
<feBlend mode="normal" in2="effect2_dropShadow_130_1016" result="effect3_dropShadow_130_1016"/>
<feColorMatrix in="SourceAlpha" type="matrix" values="0 0 0 0 0 0 0 0 0 0 0 0 0 0 0 0 0 0 127 0" result="hardAlpha"/>
<feOffset dy="37"/>
<feGaussianBlur stdDeviation="7.5"/>
<feColorMatrix type="matrix" values="0 0 0 0 0.109804 0 0 0 0 0.0862745 0 0 0 0 0.388235 0 0 0 0.01 0"/>
<feBlend mode="normal" in2="effect3_dropShadow_130_1016" result="effect4_dropShadow_130_1016"/>
<feBlend mode="normal" in="SourceGraphic" in2="effect4_dropShadow_130_1016" result="shape"/>
</filter>
<clipPath id="clip0_130_1016">
<rect width="64" height="64" fill="white" transform="translate(29.5 29)"/>
</clipPath>
</defs>
</svg>
