<svg width="122" height="153" viewBox="0 0 122 153" fill="none" xmlns="http://www.w3.org/2000/svg">
<rect width="122" height="122" rx="61" fill="#FBFBFB"/>
<g filter="url(#filter0_dddd_130_481)">
<path d="M94.1556 54.1557C94.1556 35.8668 79.2889 21 60.9999 21C42.711 21 27.8442 35.8668 27.8442 54.1557C27.8442 72.4446 42.6549 87.3113 60.9999 87.3113V101L84.2819 77.7742C90.3407 71.7714 94.1556 63.4124 94.1556 54.1557ZM75.8667 69.3591L60.9999 84.2258V75.4179C49.2748 75.4179 39.7376 65.8808 39.7376 54.1557C39.7376 42.4306 49.2748 32.8934 60.9999 32.8934C72.725 32.8934 82.2622 42.4306 82.2622 54.1557C82.2622 60.0463 79.9059 65.3198 76.035 69.1907L75.8667 69.3591Z" fill="#1380F6"/>
</g>
<defs>
<filter id="filter0_dddd_130_481" x="7.84424" y="10" width="106.311" height="143" filterUnits="userSpaceOnUse" color-interpolation-filters="sRGB">
<feFlood flood-opacity="0" result="BackgroundImageFix"/>
<feColorMatrix in="SourceAlpha" type="matrix" values="0 0 0 0 0 0 0 0 0 0 0 0 0 0 0 0 0 0 127 0" result="hardAlpha"/>
<feOffset dy="2"/>
<feGaussianBlur stdDeviation="2.5"/>
<feColorMatrix type="matrix" values="0 0 0 0 0.109804 0 0 0 0 0.0862745 0 0 0 0 0.388235 0 0 0 0.1 0"/>
<feBlend mode="normal" in2="BackgroundImageFix" result="effect1_dropShadow_130_481"/>
<feColorMatrix in="SourceAlpha" type="matrix" values="0 0 0 0 0 0 0 0 0 0 0 0 0 0 0 0 0 0 127 0" result="hardAlpha"/>
<feOffset dy="9"/>
<feGaussianBlur stdDeviation="10"/>
<feColorMatrix type="matrix" values="0 0 0 0 0.109804 0 0 0 0 0.0862745 0 0 0 0 0.388235 0 0 0 0.12 0"/>
<feBlend mode="normal" in2="effect1_dropShadow_130_481" result="effect2_dropShadow_130_481"/>
<feColorMatrix in="SourceAlpha" type="matrix" values="0 0 0 0 0 0 0 0 0 0 0 0 0 0 0 0 0 0 127 0" result="hardAlpha"/>
<feOffset dy="16"/>
<feGaussianBlur stdDeviation="10"/>
<feColorMatrix type="matrix" values="0 0 0 0 0.109804 0 0 0 0 0.0862745 0 0 0 0 0.388235 0 0 0 0.05 0"/>
<feBlend mode="normal" in2="effect2_dropShadow_130_481" result="effect3_dropShadow_130_481"/>
<feColorMatrix in="SourceAlpha" type="matrix" values="0 0 0 0 0 0 0 0 0 0 0 0 0 0 0 0 0 0 127 0" result="hardAlpha"/>
<feOffset dy="37"/>
<feGaussianBlur stdDeviation="7.5"/>
<feColorMatrix type="matrix" values="0 0 0 0 0.109804 0 0 0 0 0.0862745 0 0 0 0 0.388235 0 0 0 0.01 0"/>
<feBlend mode="normal" in2="effect3_dropShadow_130_481" result="effect4_dropShadow_130_481"/>
<feBlend mode="normal" in="SourceGraphic" in2="effect4_dropShadow_130_481" result="shape"/>
</filter>
</defs>
</svg>
