<svg width="72" height="72" viewBox="0 0 72 72" fill="none" xmlns="http://www.w3.org/2000/svg">
<rect width="72" height="72" rx="36" fill="#FBFBFB"/>
<g clip-path="url(#clip0_128_190)">
<path d="M36 32.1431C39.7538 32.1431 42.7969 29.1 42.7969 25.3462C42.7969 21.5924 39.7538 18.5493 36 18.5493C32.2462 18.5493 29.2031 21.5924 29.2031 25.3462C29.2031 29.1 32.2462 32.1431 36 32.1431Z" fill="#5671FF"/>
<path d="M49.75 32.1431C52.1231 32.1431 54.0469 30.2193 54.0469 27.8462C54.0469 25.4731 52.1231 23.5493 49.75 23.5493C47.3769 23.5493 45.4531 25.4731 45.4531 27.8462C45.4531 30.2193 47.3769 32.1431 49.75 32.1431Z" fill="#5671FF"/>
<path d="M22.25 32.1431C24.6231 32.1431 26.5469 30.2193 26.5469 27.8462C26.5469 25.4731 24.6231 23.5493 22.25 23.5493C19.8769 23.5493 17.9531 25.4731 17.9531 27.8462C17.9531 30.2193 19.8769 32.1431 22.25 32.1431Z" fill="#5671FF"/>
<path d="M26.4836 36.0016C24.7922 34.6159 23.2604 34.7993 21.3047 34.7993C18.3797 34.7993 16 37.1649 16 40.072V48.604C16 49.8665 17.0305 50.893 18.2977 50.893C23.7684 50.893 23.1094 50.992 23.1094 50.6571C23.1094 44.6113 22.3933 40.1777 26.4836 36.0016Z" fill="#5671FF"/>
<path d="M37.8601 34.8305C34.4442 34.5455 31.4751 34.8337 28.914 36.9477C24.6283 40.3805 25.4531 45.0026 25.4531 50.657C25.4531 52.153 26.6703 53.393 28.189 53.393C44.6798 53.393 45.3362 53.9249 46.314 51.7594C46.6348 51.027 46.5469 51.2598 46.5469 44.2539C46.5469 38.6894 41.7287 34.8305 37.8601 34.8305Z" fill="#5671FF"/>
<path d="M50.6953 34.7993C48.7289 34.7993 47.2055 34.6178 45.5164 36.0017C49.5761 40.1467 48.8906 44.2779 48.8906 50.6572C48.8906 50.9942 48.3435 50.8931 53.6203 50.8931C54.9328 50.8931 56 49.8298 56 48.5228V40.072C56 37.165 53.6203 34.7993 50.6953 34.7993Z" fill="#5671FF"/>
</g>
<defs>
<clipPath id="clip0_128_190">
<rect width="40" height="40" fill="white" transform="translate(16 16)"/>
</clipPath>
</defs>
</svg>
