<svg width="40" height="40" viewBox="0 0 40 40" fill="none" xmlns="http://www.w3.org/2000/svg">
<g clip-path="url(#clip0_135_1794)">
<path d="M32.5 22.9121V28.3496C32.5 30.3246 31.3375 32.0871 29.5375 32.9121C27.35 33.9121 24.0375 34.9996 20 34.9996C15.9625 34.9996 12.65 33.9121 10.45 32.9121C8.6625 32.0871 7.5 30.3246 7.5 28.3496V22.9121L16.3875 26.9746C17.525 27.4996 18.75 27.7621 20 27.7621C21.25 27.7621 22.475 27.4996 23.6125 26.9746L32.5 22.9121Z" fill="#FBFBFB"/>
<path d="M37.5 20.625V28.75C37.5 29.4375 36.9375 30 36.25 30C35.5625 30 35 29.4375 35 28.75V21.775L37.5 20.625Z" fill="#FBFBFB"/>
<path d="M17.4225 24.705C18.2412 25.0788 19.12 25.2663 20 25.2663C20.88 25.2663 21.7575 25.08 22.5775 24.705L38.5413 17.4075C39.4412 16.9963 40 16.125 40 15.1338C40 14.1425 39.4412 13.27 38.5413 12.8588L22.5775 5.56254C20.9388 4.81379 19.0625 4.81379 17.4237 5.56254L1.45875 12.8575C0.55875 13.27 0 14.1413 0 15.1325C0 16.1238 0.55875 16.995 1.45875 17.4075L17.4225 24.705Z" fill="#FBFBFB"/>
</g>
<defs>
<clipPath id="clip0_135_1794">
<rect width="40" height="40" fill="white"/>
</clipPath>
</defs>
</svg>
