<svg width="24" height="24" viewBox="0 0 24 24" fill="none" xmlns="http://www.w3.org/2000/svg">
<path d="M13.8456 17.2654L10.584 20.527C8.59423 22.4635 5.41137 22.4204 3.47482 20.4307C1.57562 18.4794 1.5752 15.3707 3.47383 13.4189L6.73544 10.1543C7.12586 9.76356 7.12562 9.13035 6.73492 8.73993C6.34422 8.34951 5.71101 8.34974 5.32059 8.74045L2.05997 12.005C-0.683726 14.7501 -0.682601 19.1996 2.06245 21.9434C4.80751 24.6871 9.25706 24.6859 12.0008 21.9409L15.2624 18.6793C15.646 18.2821 15.635 17.6491 15.2378 17.2655C14.8504 16.8912 14.2361 16.8912 13.8486 17.2655H13.8456V17.2654Z" fill="#FBFBFB"/>
<path d="M21.9437 2.06127C20.6294 0.738005 18.8402 -0.00412696 16.9752 0.000513117C15.1113 -0.00445505 13.3227 0.73613 12.0078 2.05729L8.74118 5.31987C8.35047 5.7103 8.35024 6.3435 8.74066 6.73421C9.13109 7.12491 9.76429 7.12515 10.155 6.73472L13.4196 3.47312C14.3598 2.5272 15.6395 1.99687 16.9732 2.00029C19.7497 2.00123 21.9999 4.2528 21.9989 7.02935C21.9985 8.36194 21.469 9.63988 20.5267 10.5823L17.2651 13.8439C16.8744 14.2346 16.8744 14.868 17.2651 15.2587C17.6559 15.6494 18.2893 15.6494 18.68 15.2587L21.9416 11.9991C24.6814 9.25331 24.6823 4.80811 21.9437 2.06127Z" fill="#FBFBFB"/>
<path d="M14.2935 8.29286L8.29426 14.2921C7.89704 14.6758 7.88608 15.3088 8.2697 15.706C8.65333 16.1031 9.28635 16.1142 9.68352 15.7305C9.69186 15.7225 9.70002 15.7143 9.70808 15.706L15.7074 9.70668C16.091 9.30946 16.08 8.67649 15.6828 8.29286C15.2953 7.91866 14.6811 7.91866 14.2935 8.29286Z" fill="#FBFBFB"/>
</svg>
