<svg width="40" height="40" viewBox="0 0 40 40" fill="none" xmlns="http://www.w3.org/2000/svg">
<g clip-path="url(#clip0_135_1909)">
<path d="M30 0H10C4.50049 0 0 4.49854 0 10V30C0 35.4995 4.50049 40 10 40H30C35.4995 40 40 35.4995 40 30V10C40 4.49854 35.4995 0 30 0ZM20 28.333C15.397 28.333 11.6665 24.601 11.6665 20C11.6665 15.397 15.397 11.6665 20 11.6665C24.601 11.6665 28.3335 15.397 28.3335 20C28.3335 24.601 24.601 28.333 20 28.333ZM30.8335 11.6665C29.4515 11.6665 28.3335 10.547 28.3335 9.1665C28.3335 7.78604 29.4515 6.6665 30.8335 6.6665C32.2155 6.6665 33.3335 7.78604 33.3335 9.1665C33.3335 10.547 32.2155 11.6665 30.8335 11.6665Z" fill="#FBFBFB"/>
</g>
<defs>
<clipPath id="clip0_135_1909">
<rect width="40" height="40" fill="white"/>
</clipPath>
</defs>
</svg>
