<svg width="139" height="40" viewBox="0 0 139 40" fill="none" xmlns="http://www.w3.org/2000/svg">
<ellipse cx="24.0005" cy="20.0001" rx="20" ry="19.7647" fill="#F5F5F5" fill-opacity="0.2"/>
<path d="M37.684 28.4334C37.2296 28.521 28.4241 30.0971 23.9999 24.3705C20.4827 28.8848 14.248 29.0266 10.3844 28.4509C-0.856079 25.36 0.00989277 13.6092 0.0184668 13.4954C0.0313554 13.3213 0.0956132 13.1554 0.202762 13.0194C0.309911 12.8834 0.454916 12.7837 0.618646 12.7336C0.781597 12.683 0.955552 12.6826 1.11874 12.7324C1.28192 12.7822 1.42709 12.8801 1.53606 13.0138C1.56178 13.0488 4.3569 16.5075 7.96655 16.6389C9.97385 16.7261 11.9322 15.6949 13.694 13.7583C15.8277 12.0259 20.7992 10.7072 23.9999 14.8439C25.0899 13.4257 26.6522 12.4659 28.3898 12.147C30.4897 11.909 32.6007 12.4839 34.3058 13.7581C36.0679 15.6947 38.0261 16.7263 40.0333 16.6389C43.6429 16.5075 46.438 13.0489 46.4638 13.0138C46.5733 12.882 46.7185 12.7859 46.8811 12.7376C47.0438 12.6893 47.2167 12.6909 47.3784 12.7423C47.5402 12.7936 47.6836 12.8924 47.7908 13.0263C47.898 13.1602 47.9643 13.3233 47.9814 13.4954C47.9899 13.6092 48.8559 25.36 37.684 28.4334Z" fill="#F5F5F5"/>
<path d="M37.684 28.4334C37.2296 28.521 28.4241 30.0971 23.9999 24.3705C20.4827 28.8848 14.248 29.0266 10.3844 28.4509C-0.856079 25.36 0.00989277 13.6092 0.0184668 13.4954C0.0313554 13.3213 0.0956132 13.1554 0.202762 13.0194C0.309911 12.8834 0.454916 12.7837 0.618646 12.7336C0.781597 12.683 0.955552 12.6826 1.11874 12.7324C1.28192 12.7822 1.42709 12.8801 1.53606 13.0138C1.56178 13.0488 4.3569 16.5075 7.96655 16.6389C9.97385 16.7261 11.9322 15.6949 13.694 13.7583C15.8277 12.0259 20.7992 10.7072 23.9999 14.8439C25.0899 13.4257 26.6522 12.4659 28.3898 12.147C30.4897 11.909 32.6007 12.4839 34.3058 13.7581C36.0679 15.6947 38.0261 16.7263 40.0333 16.6389C43.6429 16.5075 46.438 13.0489 46.4638 13.0138C46.5733 12.882 46.7185 12.7859 46.8811 12.7376C47.0438 12.6893 47.2167 12.6909 47.3784 12.7423C47.5402 12.7936 47.6836 12.8924 47.7908 13.0263C47.898 13.1602 47.9643 13.3233 47.9814 13.4954C47.9899 13.6092 48.8559 25.36 37.684 28.4334Z" fill="#F5F5F5"/>
<path d="M57.328 26V14.8H59.472L64.24 22.704H63.104L67.792 14.8H69.92L69.952 26H67.52L67.504 18.528H67.952L64.208 24.816H63.04L59.216 18.528H59.76V26H57.328ZM77.5853 26.192C75.9959 26.192 74.7533 25.7493 73.8573 24.864C72.9613 23.9787 72.5133 22.7147 72.5133 21.072V14.8H75.1053V20.976C75.1053 22.0427 75.3239 22.8107 75.7613 23.28C76.1986 23.7493 76.8119 23.984 77.6013 23.984C78.3906 23.984 79.0039 23.7493 79.4413 23.28C79.8786 22.8107 80.0972 22.0427 80.0972 20.976V14.8H82.6573V21.072C82.6573 22.7147 82.2093 23.9787 81.3133 24.864C80.4173 25.7493 79.1746 26.192 77.5853 26.192ZM88.8986 26.192C88.0026 26.192 87.144 26.0747 86.3226 25.84C85.5013 25.5947 84.84 25.28 84.3386 24.896L85.2186 22.944C85.6986 23.2853 86.264 23.568 86.9146 23.792C87.576 24.0053 88.2426 24.112 88.9146 24.112C89.4266 24.112 89.8373 24.064 90.1466 23.968C90.4666 23.8613 90.7013 23.7173 90.8506 23.536C91 23.3547 91.0746 23.1467 91.0746 22.912C91.0746 22.6133 90.9573 22.3787 90.7226 22.208C90.488 22.0267 90.1786 21.8827 89.7946 21.776C89.4106 21.6587 88.984 21.552 88.5146 21.456C88.056 21.3493 87.592 21.2213 87.1226 21.072C86.664 20.9227 86.2426 20.7307 85.8586 20.496C85.4746 20.2613 85.16 19.952 84.9146 19.568C84.68 19.184 84.5626 18.6933 84.5626 18.096C84.5626 17.456 84.7333 16.8747 85.0746 16.352C85.4266 15.8187 85.9493 15.3973 86.6426 15.088C87.3466 14.768 88.2266 14.608 89.2826 14.608C89.9866 14.608 90.68 14.6933 91.3626 14.864C92.0453 15.024 92.648 15.2693 93.1706 15.6L92.3706 17.568C91.848 17.2693 91.3253 17.0507 90.8026 16.912C90.28 16.7627 89.768 16.688 89.2666 16.688C88.7653 16.688 88.3546 16.7467 88.0346 16.864C87.7146 16.9813 87.4853 17.136 87.3466 17.328C87.208 17.5093 87.1386 17.7227 87.1386 17.968C87.1386 18.256 87.256 18.4907 87.4906 18.672C87.7253 18.8427 88.0346 18.9813 88.4186 19.088C88.8026 19.1947 89.224 19.3013 89.6826 19.408C90.152 19.5147 90.616 19.6373 91.0746 19.776C91.544 19.9147 91.9706 20.1013 92.3546 20.336C92.7386 20.5707 93.048 20.88 93.2826 21.264C93.528 21.648 93.6506 22.1333 93.6506 22.72C93.6506 23.3493 93.4746 23.9253 93.1226 24.448C92.7706 24.9707 92.2426 25.392 91.5386 25.712C90.8453 26.032 89.9653 26.192 88.8986 26.192ZM97.5855 26V16.912H94.0015V14.8H103.762V16.912H100.178V26H97.5855ZM103.122 26L108.114 14.8H110.674L115.682 26H112.962L108.866 16.112H109.89L105.778 26H103.122ZM105.618 23.6L106.306 21.632H112.066L112.77 23.6H105.618ZM122.095 26.192C121.21 26.192 120.394 26.0533 119.647 25.776C118.911 25.488 118.266 25.0827 117.711 24.56C117.167 24.0373 116.741 23.424 116.431 22.72C116.133 22.016 115.983 21.2427 115.983 20.4C115.983 19.5573 116.133 18.784 116.431 18.08C116.741 17.376 117.173 16.7627 117.727 16.24C118.282 15.7173 118.933 15.3173 119.679 15.04C120.426 14.752 121.247 14.608 122.143 14.608C123.135 14.608 124.026 14.7733 124.815 15.104C125.615 15.4347 126.287 15.9147 126.831 16.544L125.167 18.08C124.762 17.6533 124.319 17.3387 123.839 17.136C123.359 16.9227 122.837 16.816 122.271 16.816C121.727 16.816 121.231 16.9013 120.783 17.072C120.335 17.2427 119.946 17.488 119.615 17.808C119.295 18.128 119.045 18.5067 118.863 18.944C118.693 19.3813 118.607 19.8667 118.607 20.4C118.607 20.9227 118.693 21.4027 118.863 21.84C119.045 22.2773 119.295 22.6613 119.615 22.992C119.946 23.312 120.33 23.5573 120.767 23.728C121.215 23.8987 121.706 23.984 122.239 23.984C122.751 23.984 123.247 23.904 123.727 23.744C124.218 23.5733 124.693 23.2907 125.151 22.896L126.623 24.768C126.015 25.2267 125.306 25.5787 124.495 25.824C123.695 26.0693 122.895 26.192 122.095 26.192ZM124.255 24.432V20.224H126.623V24.768L124.255 24.432ZM131.415 19.312H136.807V21.328H131.415V19.312ZM131.607 23.92H137.703V26H129.031V14.8H137.495V16.88H131.607V23.92Z" fill="#F5F5F5"/>
</svg>
