<svg width="48" height="40" viewBox="0 0 48 40" fill="none" xmlns="http://www.w3.org/2000/svg">
<ellipse cx="24.0005" cy="20.0001" rx="20" ry="19.7647" fill="#F5F5F5" fill-opacity="0.2"/>
<path d="M37.684 28.4334C37.2296 28.521 28.4241 30.0971 23.9999 24.3705C20.4827 28.8848 14.248 29.0266 10.3844 28.4509C-0.856079 25.36 0.00989277 13.6092 0.0184668 13.4954C0.0313554 13.3213 0.0956132 13.1554 0.202762 13.0194C0.309911 12.8834 0.454916 12.7837 0.618646 12.7336C0.781597 12.683 0.955552 12.6826 1.11874 12.7324C1.28192 12.7822 1.42709 12.8801 1.53606 13.0138C1.56178 13.0488 4.3569 16.5075 7.96655 16.6389C9.97385 16.7261 11.9322 15.6949 13.694 13.7583C15.8277 12.0259 20.7992 10.7072 23.9999 14.8439C25.0899 13.4257 26.6522 12.4659 28.3898 12.147C30.4897 11.909 32.6007 12.4839 34.3058 13.7581C36.0679 15.6947 38.0261 16.7263 40.0333 16.6389C43.6429 16.5075 46.438 13.0489 46.4638 13.0138C46.5733 12.882 46.7185 12.7859 46.8811 12.7376C47.0438 12.6893 47.2167 12.6909 47.3784 12.7423C47.5402 12.7936 47.6836 12.8924 47.7908 13.0263C47.898 13.1602 47.9643 13.3233 47.9814 13.4954C47.9899 13.6092 48.8559 25.36 37.684 28.4334Z" fill="#F5F5F5"/>
<path d="M37.684 28.4334C37.2296 28.521 28.4241 30.0971 23.9999 24.3705C20.4827 28.8848 14.248 29.0266 10.3844 28.4509C-0.856079 25.36 0.00989277 13.6092 0.0184668 13.4954C0.0313554 13.3213 0.0956132 13.1554 0.202762 13.0194C0.309911 12.8834 0.454916 12.7837 0.618646 12.7336C0.781597 12.683 0.955552 12.6826 1.11874 12.7324C1.28192 12.7822 1.42709 12.8801 1.53606 13.0138C1.56178 13.0488 4.3569 16.5075 7.96655 16.6389C9.97385 16.7261 11.9322 15.6949 13.694 13.7583C15.8277 12.0259 20.7992 10.7072 23.9999 14.8439C25.0899 13.4257 26.6522 12.4659 28.3898 12.147C30.4897 11.909 32.6007 12.4839 34.3058 13.7581C36.0679 15.6947 38.0261 16.7263 40.0333 16.6389C43.6429 16.5075 46.438 13.0489 46.4638 13.0138C46.5733 12.882 46.7185 12.7859 46.8811 12.7376C47.0438 12.6893 47.2167 12.6909 47.3784 12.7423C47.5402 12.7936 47.6836 12.8924 47.7908 13.0263C47.898 13.1602 47.9643 13.3233 47.9814 13.4954C47.9899 13.6092 48.8559 25.36 37.684 28.4334Z" fill="#F5F5F5"/>
</svg>
