<svg width="40" height="40" viewBox="0 0 40 40" fill="none" xmlns="http://www.w3.org/2000/svg">
<path fill-rule="evenodd" clip-rule="evenodd" d="M27.9167 17.083H33.3334C33.7617 17.083 34.1801 17.1263 34.5834 17.208V4.99967C34.5834 3.38801 33.2784 2.08301 31.6667 2.08301H18.3334C16.7217 2.08301 15.4167 3.38801 15.4167 4.99967V5.41634H22.5001C23.9367 5.41634 25.3151 5.98634 26.3301 7.00301C27.3467 8.01801 27.9167 9.39634 27.9167 10.833V17.083Z" fill="#FBFBFB"/>
<path fill-rule="evenodd" clip-rule="evenodd" d="M5.41675 11.3747C5.82008 11.293 6.23841 11.2497 6.66675 11.2497H17.4517C19.4701 11.2497 21.3634 12.2247 22.5368 13.8663L24.7101 16.908C24.7884 17.018 24.9151 17.083 25.0484 17.083H26.2501V10.833C26.2501 9.83801 25.8551 8.88467 25.1518 8.18134C24.4484 7.47801 23.4951 7.08301 22.5001 7.08301H8.33342C6.72175 7.08301 5.41675 8.38967 5.41675 9.99967V11.3747Z" fill="#FBFBFB"/>
<path fill-rule="evenodd" clip-rule="evenodd" d="M33.3334 37.916C35.8634 37.916 37.9167 35.8627 37.9167 33.3327V23.3327C37.9167 20.8027 35.8634 18.7493 33.3334 18.7493H25.0484C24.3767 18.7493 23.745 18.4243 23.3534 17.8777L21.1817 14.836C20.32 13.631 18.9317 12.916 17.4517 12.916C14.0267 12.916 6.66671 12.916 6.66671 12.916C4.13671 12.916 2.08337 14.9693 2.08337 17.4993V33.3327C2.08337 35.8627 4.13671 37.916 6.66671 37.916H33.3334ZM10 31.2493H15C15.69 31.2493 16.25 30.6893 16.25 29.9993C16.25 29.3093 15.69 28.7493 15 28.7493H10C9.31004 28.7493 8.75004 29.3093 8.75004 29.9993C8.75004 30.6893 9.31004 31.2493 10 31.2493ZM10 27.0827H15C15.69 27.0827 16.25 26.5227 16.25 25.8327C16.25 25.1427 15.69 24.5827 15 24.5827H10C9.31004 24.5827 8.75004 25.1427 8.75004 25.8327C8.75004 26.5227 9.31004 27.0827 10 27.0827Z" fill="#FBFBFB"/>
</svg>
