<svg width="56" height="56" viewBox="0 0 56 56" fill="none" xmlns="http://www.w3.org/2000/svg">
<g filter="url(#filter0_d_125_1564)">
<path d="M41 20.586V13.1352C41.9764 12.7408 42.6668 11.7864 42.6668 10.6664C42.6668 9.1924 41.474 8 40 8C38.5284 8 37.3332 9.1924 37.3332 10.6664C37.3332 11.7864 38.0236 12.7396 39 13.1352V18.0988C36.1328 15.1524 32.2656 13.3332 28 13.3332C23.7344 13.3332 19.8688 15.1524 17 18.1V13.1352C17.9764 12.7396 18.6664 11.7864 18.6664 10.6664C18.6664 9.1924 17.4736 8 16 8C14.528 8 13.3336 9.1924 13.3336 10.6664C13.3336 11.7864 14.0236 12.7396 15 13.1352V20.5872C13.1192 23.428 12 26.9024 12 30.6664C12 35.8228 19.164 40 28 40C36.8388 40 44 35.8228 44 30.6664C44 26.9008 42.88 23.428 41 20.586ZM28 33.3328C22.4748 33.3328 18 32.1392 18 30.6664C18 27.5412 18.7632 24.7132 20 22.6664C25.3384 24.51 31.0624 24.3772 36 22.6664C37.2372 24.7132 38 27.5416 38 30.6664C38 32.1392 33.5224 33.3328 28 33.3328Z" fill="#5671FF"/>
<path d="M34.6669 29.0002C34.6669 29.9222 33.9221 30.6666 33.0001 30.6666C32.0781 30.6666 31.3333 29.9222 31.3333 29.0002C31.3333 28.079 32.0781 27.333 33.0001 27.333C33.9221 27.333 34.6669 28.079 34.6669 29.0002Z" fill="#5671FF"/>
<path d="M24.6664 29.0002C24.6664 29.9222 23.9212 30.6666 23 30.6666C22.0788 30.6666 21.3336 29.9222 21.3336 29.0002C21.3336 28.079 22.0788 27.333 23 27.333C23.9212 27.333 24.6664 28.079 24.6664 29.0002Z" fill="#5671FF"/>
</g>
<defs>
<filter id="filter0_d_125_1564" x="-4" y="-4" width="64" height="64" filterUnits="userSpaceOnUse" color-interpolation-filters="sRGB">
<feFlood flood-opacity="0" result="BackgroundImageFix"/>
<feColorMatrix in="SourceAlpha" type="matrix" values="0 0 0 0 0 0 0 0 0 0 0 0 0 0 0 0 0 0 127 0" result="hardAlpha"/>
<feOffset dy="4"/>
<feGaussianBlur stdDeviation="6"/>
<feComposite in2="hardAlpha" operator="out"/>
<feColorMatrix type="matrix" values="0 0 0 0 0.337255 0 0 0 0 0.443137 0 0 0 0 1 0 0 0 0.5 0"/>
<feBlend mode="normal" in2="BackgroundImageFix" result="effect1_dropShadow_125_1564"/>
<feBlend mode="normal" in="SourceGraphic" in2="effect1_dropShadow_125_1564" result="shape"/>
</filter>
</defs>
</svg>
