<svg width="32" height="32" viewBox="0 0 32 32" fill="none" xmlns="http://www.w3.org/2000/svg">
<path d="M5 13C5 6.92487 9.92487 2 16 2C22.0751 2 27 6.92487 27 13V14.126C28.7252 14.5701 30 16.1362 30 18V22C30 24.2091 28.2091 26 26 26C25.7694 26 25.5433 25.9805 25.3234 25.943C23.9542 28.5462 21.1645 30.1431 18.1999 29.9901C18.1342 29.9967 18.0675 30 18 30H16C14.8954 30 14 29.1046 14 28C14 26.8954 14.8954 26 16 26H18C19.0443 26 19.9017 26.8004 19.9921 27.8212C21.465 27.4404 22.7456 26.4713 23.4954 25.119C22.5836 24.3859 22 23.2611 22 22V18C22 16.1362 23.2748 14.5701 25 14.126V13C25 8.02944 20.9706 4 16 4C11.0294 4 7 8.02944 7 13V14.126C8.72523 14.5701 10 16.1362 10 18V22C10 24.2091 8.20914 26 6 26C3.79086 26 2 24.2091 2 22V18C2 16.1362 3.27477 14.5701 5 14.126V13Z" fill="#FBFBFB"/>
</svg>
