<svg width="40" height="40" viewBox="0 0 40 40" fill="none" xmlns="http://www.w3.org/2000/svg">
<path d="M5.124 15.7708C4.04 16.2258 3.36717 17.0358 3.357 18.1825C3.35 18.9842 3.891 20.0608 4.975 20.5008C5.4215 20.6825 11.6907 21.5258 11.6907 21.5258C11.6907 21.5258 13.35 26.7708 13.948 28.6142C14.1212 29.1475 14.2198 29.4092 14.5998 29.7575C15.2445 30.3475 16.3343 30.1625 16.8057 29.6892C18.0527 28.4392 20.0237 26.5108 20.0237 26.5108L20.8532 27.1858C20.8532 27.1858 24.5367 30.1242 26.5502 31.5075C27.7357 32.3225 28.5585 33.1725 29.8929 33.1775C30.5725 33.1808 31.6627 32.8425 32.3834 32.0175C32.8596 31.4725 33.1651 30.6008 33.2832 29.8192C33.5519 28.0442 36.7037 8.85081 36.6904 8.17915C36.6691 7.10748 35.7676 6.50413 35.0182 6.5108C34.5476 6.5158 34.1597 6.65248 33.2967 6.91581C26.6211 8.95415 5.56617 15.5858 5.124 15.7708ZM30.0237 11.5108C30.0237 11.5108 21.2271 19.1675 17.7119 22.6908C16.5857 23.8192 16.5062 25.7558 16.5062 25.7558L14.6892 19.9425L30.0237 11.5108Z" fill="#FBFBFB"/>
</svg>
