<svg width="58" height="52" viewBox="0 0 58 52" fill="none" xmlns="http://www.w3.org/2000/svg">
<g filter="url(#filter0_d_122_1507)">
<path d="M14.124 17.7708C13.04 18.2258 12.3672 19.0358 12.357 20.1825C12.35 20.9842 12.891 22.0608 13.975 22.5008C14.4215 22.6825 20.6907 23.5258 20.6907 23.5258C20.6907 23.5258 22.35 28.7708 22.948 30.6142C23.1212 31.1475 23.2198 31.4092 23.5998 31.7575C24.2445 32.3475 25.3343 32.1625 25.8057 31.6892C27.0527 30.4392 29.0237 28.5108 29.0237 28.5108L29.8532 29.1858C29.8532 29.1858 33.5367 32.1242 35.5502 33.5075C36.7357 34.3225 37.5585 35.1725 38.8929 35.1775C39.5725 35.1808 40.6627 34.8425 41.3834 34.0175C41.8596 33.4725 42.1651 32.6008 42.2832 31.8192C42.5519 30.0442 45.7037 10.8508 45.6904 10.1791C45.6691 9.10748 44.7676 8.50413 44.0182 8.5108C43.5476 8.5158 43.1597 8.65248 42.2967 8.91581C35.6211 10.9541 14.5662 17.5858 14.124 17.7708ZM39.0237 13.5108C39.0237 13.5108 30.2271 21.1675 26.7119 24.6908C25.5857 25.8192 25.5062 27.7558 25.5062 27.7558L23.6892 21.9425L39.0237 13.5108Z" fill="#5671FF"/>
</g>
<defs>
<filter id="filter0_d_122_1507" x="-3" y="-6" width="64" height="64" filterUnits="userSpaceOnUse" color-interpolation-filters="sRGB">
<feFlood flood-opacity="0" result="BackgroundImageFix"/>
<feColorMatrix in="SourceAlpha" type="matrix" values="0 0 0 0 0 0 0 0 0 0 0 0 0 0 0 0 0 0 127 0" result="hardAlpha"/>
<feOffset dy="4"/>
<feGaussianBlur stdDeviation="6"/>
<feComposite in2="hardAlpha" operator="out"/>
<feColorMatrix type="matrix" values="0 0 0 0 0.337255 0 0 0 0 0.443137 0 0 0 0 1 0 0 0 0.5 0"/>
<feBlend mode="normal" in2="BackgroundImageFix" result="effect1_dropShadow_122_1507"/>
<feBlend mode="normal" in="SourceGraphic" in2="effect1_dropShadow_122_1507" result="shape"/>
</filter>
</defs>
</svg>
