<svg width="40" height="40" viewBox="0 0 40 40" fill="none" xmlns="http://www.w3.org/2000/svg">
<path d="M36.3176 8.78648C32.119 8.78648 28.7032 5.37055 28.7032 1.17188C28.7032 0.524687 28.1785 0 27.5313 0H21.2552C20.608 0 20.0833 0.524687 20.0833 1.17188V26.9037C20.0833 29.372 18.0751 31.3802 15.6067 31.3802C13.1383 31.3802 11.1302 29.372 11.1302 26.9037C11.1302 24.4352 13.1383 22.427 15.6067 22.427C16.2539 22.427 16.7786 21.9023 16.7786 21.2552V14.9791C16.7786 14.3319 16.2539 13.8072 15.6067 13.8072C8.38538 13.8072 2.51038 19.6822 2.51038 26.9037C2.51045 34.125 8.38538 40 15.6068 40C22.8282 40 28.7033 34.125 28.7033 26.9037V15.5138C31.0357 16.7572 33.6308 17.4063 36.3177 17.4063C36.9649 17.4063 37.4896 16.8816 37.4896 16.2345V9.95836C37.4895 9.31117 36.9648 8.78648 36.3176 8.78648Z" fill="#FBFBFB"/>
</svg>
