<svg width="108" height="143" viewBox="0 0 108 143" fill="none" xmlns="http://www.w3.org/2000/svg">
<g filter="url(#filter0_dddd_130_482)">
<path d="M87.1556 44.1557C87.1556 25.8668 72.2889 11 53.9999 11C35.711 11 20.8442 25.8668 20.8442 44.1557C20.8442 62.4446 35.6549 77.3113 53.9999 77.3113V91L77.2819 67.7742C83.3407 61.7714 87.1556 53.4124 87.1556 44.1557ZM68.8667 59.3591L53.9999 74.2258V65.4179C42.2748 65.4179 32.7376 55.8808 32.7376 44.1557C32.7376 32.4306 42.2748 22.8934 53.9999 22.8934C65.725 22.8934 75.2622 32.4306 75.2622 44.1557C75.2622 50.0463 72.9059 55.3198 69.035 59.1907L68.8667 59.3591Z" fill="#1380F6"/>
</g>
<defs>
<filter id="filter0_dddd_130_482" x="0.844238" y="0" width="106.311" height="143" filterUnits="userSpaceOnUse" color-interpolation-filters="sRGB">
<feFlood flood-opacity="0" result="BackgroundImageFix"/>
<feColorMatrix in="SourceAlpha" type="matrix" values="0 0 0 0 0 0 0 0 0 0 0 0 0 0 0 0 0 0 127 0" result="hardAlpha"/>
<feOffset dy="2"/>
<feGaussianBlur stdDeviation="2.5"/>
<feColorMatrix type="matrix" values="0 0 0 0 0.109804 0 0 0 0 0.0862745 0 0 0 0 0.388235 0 0 0 0.1 0"/>
<feBlend mode="normal" in2="BackgroundImageFix" result="effect1_dropShadow_130_482"/>
<feColorMatrix in="SourceAlpha" type="matrix" values="0 0 0 0 0 0 0 0 0 0 0 0 0 0 0 0 0 0 127 0" result="hardAlpha"/>
<feOffset dy="9"/>
<feGaussianBlur stdDeviation="10"/>
<feColorMatrix type="matrix" values="0 0 0 0 0.109804 0 0 0 0 0.0862745 0 0 0 0 0.388235 0 0 0 0.12 0"/>
<feBlend mode="normal" in2="effect1_dropShadow_130_482" result="effect2_dropShadow_130_482"/>
<feColorMatrix in="SourceAlpha" type="matrix" values="0 0 0 0 0 0 0 0 0 0 0 0 0 0 0 0 0 0 127 0" result="hardAlpha"/>
<feOffset dy="16"/>
<feGaussianBlur stdDeviation="10"/>
<feColorMatrix type="matrix" values="0 0 0 0 0.109804 0 0 0 0 0.0862745 0 0 0 0 0.388235 0 0 0 0.05 0"/>
<feBlend mode="normal" in2="effect2_dropShadow_130_482" result="effect3_dropShadow_130_482"/>
<feColorMatrix in="SourceAlpha" type="matrix" values="0 0 0 0 0 0 0 0 0 0 0 0 0 0 0 0 0 0 127 0" result="hardAlpha"/>
<feOffset dy="37"/>
<feGaussianBlur stdDeviation="7.5"/>
<feColorMatrix type="matrix" values="0 0 0 0 0.109804 0 0 0 0 0.0862745 0 0 0 0 0.388235 0 0 0 0.01 0"/>
<feBlend mode="normal" in2="effect3_dropShadow_130_482" result="effect4_dropShadow_130_482"/>
<feBlend mode="normal" in="SourceGraphic" in2="effect4_dropShadow_130_482" result="shape"/>
</filter>
</defs>
</svg>
