<svg width="64" height="54" viewBox="0 0 64 54" fill="none" xmlns="http://www.w3.org/2000/svg">
<g filter="url(#filter0_d_121_1473)">
<path d="M50.4409 11.3413C48.997 9.62493 46.3312 8.9248 41.2401 8.9248H22.7595C17.5519 8.9248 14.8409 9.6701 13.4025 11.4975C12 13.2791 12 15.9043 12 19.5376V26.4626C12 33.5014 13.664 37.0753 22.7595 37.0753H41.2403C45.6552 37.0753 48.1017 36.4575 49.6844 34.9427C51.3075 33.3895 52 30.8533 52 26.4626V19.5376C52 15.706 51.8915 13.0653 50.4409 11.3413ZM37.6801 23.9562L29.2881 28.3421C29.1005 28.4402 28.8954 28.4888 28.6905 28.4888C28.4585 28.4888 28.227 28.4264 28.0219 28.3022C27.6359 28.0683 27.4001 27.6498 27.4001 27.1985V18.4547C27.4001 18.0042 27.6352 17.5861 28.0205 17.352C28.4059 17.118 28.8853 17.102 29.2852 17.3097L37.6772 21.6674C38.1041 21.8891 38.3723 22.3298 38.3729 22.8107C38.3734 23.292 38.1065 23.7334 37.6801 23.9562Z" fill="#5671FF"/>
</g>
<defs>
<filter id="filter0_d_121_1473" x="0" y="0.924805" width="64" height="52.1504" filterUnits="userSpaceOnUse" color-interpolation-filters="sRGB">
<feFlood flood-opacity="0" result="BackgroundImageFix"/>
<feColorMatrix in="SourceAlpha" type="matrix" values="0 0 0 0 0 0 0 0 0 0 0 0 0 0 0 0 0 0 127 0" result="hardAlpha"/>
<feOffset dy="4"/>
<feGaussianBlur stdDeviation="6"/>
<feComposite in2="hardAlpha" operator="out"/>
<feColorMatrix type="matrix" values="0 0 0 0 0.337255 0 0 0 0 0.443137 0 0 0 0 1 0 0 0 0.5 0"/>
<feBlend mode="normal" in2="BackgroundImageFix" result="effect1_dropShadow_121_1473"/>
<feBlend mode="normal" in="SourceGraphic" in2="effect1_dropShadow_121_1473" result="shape"/>
</filter>
</defs>
</svg>
