<svg width="40" height="40" viewBox="0 0 40 40" fill="none" xmlns="http://www.w3.org/2000/svg">
<path d="M38.4409 8.34132C36.997 6.62493 34.3312 5.9248 29.2401 5.9248H10.7595C5.55187 5.9248 2.8409 6.6701 1.40245 8.49745C0 10.2791 0 12.9043 0 16.5376V23.4626C0 30.5014 1.664 34.0753 10.7595 34.0753H29.2403C33.6552 34.0753 36.1017 33.4575 37.6844 31.9427C39.3075 30.3895 40 27.8533 40 23.4626V16.5376C40 12.706 39.8915 10.0653 38.4409 8.34132ZM25.6801 20.9562L17.2881 25.3421C17.1005 25.4402 16.8954 25.4888 16.6905 25.4888C16.4585 25.4888 16.227 25.4264 16.0219 25.3022C15.6359 25.0683 15.4001 24.6498 15.4001 24.1985V15.4547C15.4001 15.0042 15.6352 14.5861 16.0205 14.352C16.4059 14.118 16.8853 14.102 17.2852 14.3097L25.6772 18.6674C26.1041 18.8891 26.3723 19.3298 26.3729 19.8107C26.3734 20.292 26.1065 20.7334 25.6801 20.9562Z" fill="#FBFBFB"/>
</svg>
